<?xml version="1.0" standalone="no"?>
<svg xmlns:xlink="http://www.w3.org/1999/xlink" id="wave" style="transform:rotate(0deg); transition: 0.3s" viewBox="0 0 1440 120" version="1.1" xmlns="http://www.w3.org/2000/svg"><defs><linearGradient id="sw-gradient-0" x1="0" x2="0" y1="1" y2="0"><stop stop-color="rgba(243, 106, 62, 1)" offset="0%"/><stop stop-color="rgba(255, 179, 11, 1)" offset="100%"/></linearGradient></defs><path style="transform:translate(0, 0px); opacity:1" fill="url(#sw-gradient-0)" d="M0,0L18.5,12C36.9,24,74,48,111,54C147.7,60,185,48,222,44C258.5,40,295,44,332,46C369.2,48,406,48,443,40C480,32,517,16,554,16C590.8,16,628,32,665,42C701.5,52,738,56,775,50C812.3,44,849,28,886,36C923.1,44,960,76,997,80C1033.8,84,1071,60,1108,54C1144.6,48,1182,60,1218,54C1255.4,48,1292,24,1329,30C1366.2,36,1403,72,1440,86C1476.9,100,1514,92,1551,76C1587.7,60,1625,36,1662,26C1698.5,16,1735,20,1772,20C1809.2,20,1846,16,1883,14C1920,12,1957,12,1994,28C2030.8,44,2068,76,2105,74C2141.5,72,2178,36,2215,32C2252.3,28,2289,56,2326,58C2363.1,60,2400,36,2437,22C2473.8,8,2511,4,2548,10C2584.6,16,2622,32,2640,40L2658.5,48L2658.5,120L2640,120C2621.5,120,2585,120,2548,120C2510.8,120,2474,120,2437,120C2400,120,2363,120,2326,120C2289.2,120,2252,120,2215,120C2178.5,120,2142,120,2105,120C2067.7,120,2031,120,1994,120C1956.9,120,1920,120,1883,120C1846.2,120,1809,120,1772,120C1735.4,120,1698,120,1662,120C1624.6,120,1588,120,1551,120C1513.8,120,1477,120,1440,120C1403.1,120,1366,120,1329,120C1292.3,120,1255,120,1218,120C1181.5,120,1145,120,1108,120C1070.8,120,1034,120,997,120C960,120,923,120,886,120C849.2,120,812,120,775,120C738.5,120,702,120,665,120C627.7,120,591,120,554,120C516.9,120,480,120,443,120C406.2,120,369,120,332,120C295.4,120,258,120,222,120C184.6,120,148,120,111,120C73.8,120,37,120,18,120L0,120Z"/><defs><linearGradient id="sw-gradient-1" x1="0" x2="0" y1="1" y2="0"><stop stop-color="rgba(243, 106, 62, 1)" offset="0%"/><stop stop-color="rgba(255, 179, 11, 1)" offset="100%"/></linearGradient></defs><path style="transform:translate(0, 50px); opacity:0.9" fill="url(#sw-gradient-1)" d="M0,96L18.5,92C36.9,88,74,80,111,82C147.7,84,185,96,222,100C258.5,104,295,100,332,92C369.2,84,406,72,443,60C480,48,517,36,554,44C590.8,52,628,80,665,80C701.5,80,738,52,775,40C812.3,28,849,32,886,36C923.1,40,960,44,997,48C1033.8,52,1071,56,1108,60C1144.6,64,1182,68,1218,60C1255.4,52,1292,32,1329,38C1366.2,44,1403,76,1440,78C1476.9,80,1514,52,1551,52C1587.7,52,1625,80,1662,94C1698.5,108,1735,108,1772,96C1809.2,84,1846,60,1883,56C1920,52,1957,68,1994,66C2030.8,64,2068,44,2105,34C2141.5,24,2178,24,2215,20C2252.3,16,2289,8,2326,16C2363.1,24,2400,48,2437,54C2473.8,60,2511,48,2548,54C2584.6,60,2622,84,2640,96L2658.5,108L2658.5,120L2640,120C2621.5,120,2585,120,2548,120C2510.8,120,2474,120,2437,120C2400,120,2363,120,2326,120C2289.2,120,2252,120,2215,120C2178.5,120,2142,120,2105,120C2067.7,120,2031,120,1994,120C1956.9,120,1920,120,1883,120C1846.2,120,1809,120,1772,120C1735.4,120,1698,120,1662,120C1624.6,120,1588,120,1551,120C1513.8,120,1477,120,1440,120C1403.1,120,1366,120,1329,120C1292.3,120,1255,120,1218,120C1181.5,120,1145,120,1108,120C1070.8,120,1034,120,997,120C960,120,923,120,886,120C849.2,120,812,120,775,120C738.5,120,702,120,665,120C627.7,120,591,120,554,120C516.9,120,480,120,443,120C406.2,120,369,120,332,120C295.4,120,258,120,222,120C184.6,120,148,120,111,120C73.8,120,37,120,18,120L0,120Z"/></svg>