<?xml version="1.0" encoding="utf-8"?>
<!-- Generator: Adobe Illustrator 24.0.2, SVG Export Plug-In . SVG Version: 6.00 Build 0)  -->
<!DOCTYPE svg PUBLIC "-//W3C//DTD SVG 1.1//EN" "http://www.w3.org/Graphics/SVG/1.1/DTD/svg11.dtd" [
	<!ENTITY ns_extend "http://ns.adobe.com/Extensibility/1.0/">
	<!ENTITY ns_ai "http://ns.adobe.com/AdobeIllustrator/10.0/">
	<!ENTITY ns_graphs "http://ns.adobe.com/Graphs/1.0/">
	<!ENTITY ns_vars "http://ns.adobe.com/Variables/1.0/">
	<!ENTITY ns_imrep "http://ns.adobe.com/ImageReplacement/1.0/">
	<!ENTITY ns_sfw "http://ns.adobe.com/SaveForWeb/1.0/">
	<!ENTITY ns_custom "http://ns.adobe.com/GenericCustomNamespace/1.0/">
	<!ENTITY ns_adobe_xpath "http://ns.adobe.com/XPath/1.0/">
]>
<svg version="1.1" id="Capa_1" xmlns:x="&ns_extend;" xmlns:i="&ns_ai;" xmlns:graph="&ns_graphs;"
	 xmlns="http://www.w3.org/2000/svg" xmlns:xlink="http://www.w3.org/1999/xlink" x="0px" y="0px" viewBox="0 0 1080 260"
	 style="enable-background:new 0 0 1080 260;" xml:space="preserve">
<style type="text/css">
	.st0{fill:#1B0035;}
	.st1{fill:#FF9B2E;}
	.st2{fill:#FFFFFF;}
	.st3{fill:#5F5666;}
	.st4{clip-path:url(#SVGID_2_);fill:#FF9B2E;}
	.st5{opacity:0.5;clip-path:url(#SVGID_2_);fill:#FFFFFF;}
	.st6{opacity:0.5;clip-path:url(#SVGID_2_);}
	.st7{clip-path:url(#SVGID_2_);fill:#5F5666;}
	.st8{clip-path:url(#SVGID_2_);fill:#1B0035;}
	.st9{clip-path:url(#SVGID_2_);}
	.st10{clip-path:url(#SVGID_2_);fill:#FFFFFF;}
</style>
<metadata>
	<sfw  xmlns="&ns_sfw;">
		<slices></slices>
		<sliceSourceBounds  bottomLeftOrigin="true" height="5678.2" width="5955.1" x="-454.1" y="-673.7"></sliceSourceBounds>
		<optimizationSettings>
			<targetSettings  fileFormat="PNG8Format" targetSettingsID="0">
				
					<PNG8Format  autoReduce="false" ditherAlgorithm="diffusion" ditherPercent="88" interlaced="false" matteColor="#FFFFFF" noMatteColor="false" numColors="128" reductionAlgorithm="selective" rolloverMasterPalette="false" transparency="true" webShiftPercent="0">
					<colorTable  isExact="false"></colorTable>
					<lockedColors></lockedColors>
					<colorShiftEntries></colorShiftEntries>
				</PNG8Format>
			</targetSettings>
		</optimizationSettings>
	</sfw>
</metadata>
<g>
	<g>
		<g>
			<g>
				<g>
					<path class="st1" d="M119.1,165.5h35.5L97.6,8.9H62.1L5,165.5h35.5l0-0.1h78.6L119.1,165.5z M64,101l15.8-43.3L80,58l0.1-0.4
						l27.1,74.6H52.6L64,101L64,101z"/>
				</g>
			</g>
			<g>
				<g>
					<path class="st1" d="M727.7,165.5h35.5L706.1,8.9h-35.5l-57.1,156.6h35.5l0-0.1h78.6L727.7,165.5z M672.6,101l15.8-43.3
						l0.1,0.4l0.1-0.4l27.1,74.6h-54.6L672.6,101L672.6,101z"/>
				</g>
			</g>
			<g>
				<polygon class="st1" points="250.4,84.3 198.2,8.6 170.9,8.6 170.9,63.7 170.9,165.2 201.8,165.2 204.2,165.2 204.2,75.3 
					250.4,142.4 296.7,75.3 296.7,165.2 299.1,165.2 330,165.2 330,63.7 330,8.6 302.6,8.6 				"/>
			</g>
			<g>
				<g>
					<path class="st1" d="M432.6,68.7c18-18.7,9.6-60.1-33.4-60.1h-47.3v156.7l64.5,0C466.5,165.2,481.7,86.6,432.6,68.7z M385.2,40
						h13.6c5.1,0,8.6,6.5,8.6,11.6s-3.6,11.1-8.6,11.1h-13.6V40z M407.9,131.9h-22.7V92.2h22.7c11.2,0,19.6,8.2,19.6,19.4
						C427.5,122.8,419.1,132.3,407.9,131.9z"/>
				</g>
			</g>
			<g>
				<g>
					<path class="st1" d="M603.7,71.1c0-34.6-24.3-62.6-58.6-62.6v0h-63.4v156.7h33.3v-24.9v-5.1l6.7,0.1l36.7,29.9h45.9l-40.8-34.4
						C587.7,122.9,603.7,99.2,603.7,71.1z M541.8,99h-26.9V43.3h26.9c15.3,0,27.4,12.5,27.4,27.8S557,98.3,541.8,99z"/>
				</g>
			</g>
			<g>
				<path class="st1" d="M846.3,36.9c12.2,0,24.8,1.3,43,13.5l17.1-25.4c-19.2-13.7-39.6-20.3-60.2-20.4
					c-43.1,0-83.2,31.5-83.2,82.3v0c0,50.8,40.1,82.3,83.2,82.3v0c20.6,0,41-6.7,60.2-20.4l-17.1-25.4c-18.3,12.1-30.9,13.5-43,13.5
					c-24.8,0-49-23.1-49-50C797.3,59.9,821.5,36.9,846.3,36.9z"/>
			</g>
			<g>
				<g>
					<path class="st1" d="M992.3,4.6c-45.6,0-82.7,36.9-82.7,82.3c0,45.4,37,82.3,82.7,82.3c45.6,0,82.7-36.9,82.7-82.3
						S1037.9,4.6,992.3,4.6z M992.3,136.9c-24.7,0-48.7-23.1-48.7-50c0-26.9,24-50,48.7-50c24.7,0,48.7,23.1,48.7,50
						C1041,113.8,1017,136.9,992.3,136.9z"/>
				</g>
			</g>
		</g>
	</g>
	<g>
		<g>
			<path class="st2" d="M121,210.1h11.7l12.3,30h0.5l12.3-30h11.7v44.7h-9.2v-29.1h-0.4l-11.6,28.9h-6.2l-11.6-29h-0.4v29.2H121
				V210.1z"/>
			<path class="st2" d="M244,254.8h-10.1l15.4-44.7h12.2l15.4,44.7h-10.1l-11.2-34.5h-0.3L244,254.8z M243.3,237.3h23.9v7.4h-23.9
				V237.3z"/>
			<path class="st2" d="M341.3,254.8v-44.7h17.6c3.4,0,6.3,0.6,8.7,1.8c2.4,1.2,4.2,2.9,5.5,5.1c1.3,2.2,1.9,4.8,1.9,7.7
				c0,3-0.6,5.5-1.9,7.7c-1.3,2.1-3.1,3.8-5.6,4.9c-2.4,1.1-5.4,1.7-8.8,1.7h-11.8v-7.6h10.3c1.8,0,3.3-0.2,4.5-0.7
				c1.2-0.5,2.1-1.2,2.7-2.2c0.6-1,0.9-2.2,0.9-3.7c0-1.5-0.3-2.7-0.9-3.8c-0.6-1-1.5-1.8-2.7-2.3s-2.7-0.8-4.5-0.8h-6.4v37H341.3z
				 M365.4,234.5l11.1,20.3h-10.4l-10.9-20.3H365.4z"/>
			<path class="st2" d="M440.6,254.8v-44.7h9.5v19.7h0.6l16.1-19.7h11.3l-16.6,20l16.8,24.7H467l-12.2-18.4l-4.7,5.7v12.7H440.6z"/>
			<path class="st2" d="M542.1,254.8v-44.7h30.1v7.8h-20.7v10.7h19.1v7.8h-19.1v10.7h20.8v7.8H542.1z"/>
			<path class="st2" d="M637,217.9v-7.8h36.7v7.8h-13.7v36.9h-9.3v-36.9H637z"/>
			<path class="st2" d="M748.3,210.1v44.7h-9.5v-44.7H748.3z"/>
			<path class="st2" d="M852.5,210.1v44.7h-8.2l-19.5-28.1h-0.3v28.1h-9.5v-44.7h8.3l19.3,28.1h0.4v-28.1H852.5z"/>
			<path class="st2" d="M949,224.6c-0.3-1.1-0.7-2-1.3-2.8c-0.6-0.8-1.2-1.5-2-2.1c-0.8-0.6-1.7-1-2.7-1.3c-1-0.3-2.1-0.5-3.4-0.5
				c-2.3,0-4.3,0.6-6,1.7c-1.7,1.1-3.1,2.8-4,4.9s-1.4,4.8-1.4,7.9c0,3.1,0.5,5.8,1.4,7.9c0.9,2.2,2.3,3.8,4,5
				c1.7,1.1,3.8,1.7,6.1,1.7c2.1,0,4-0.4,5.5-1.1c1.5-0.8,2.7-1.8,3.5-3.2c0.8-1.4,1.2-3,1.2-5l1.9,0.3h-11.5v-7.1H959v5.6
				c0,3.9-0.8,7.3-2.5,10.1c-1.7,2.8-3.9,5-6.9,6.5c-2.9,1.5-6.2,2.3-10,2.3c-4.2,0-7.9-0.9-11-2.8c-3.2-1.9-5.6-4.5-7.4-7.9
				c-1.8-3.4-2.7-7.5-2.7-12.2c0-3.6,0.5-6.9,1.6-9.7c1.1-2.8,2.5-5.3,4.4-7.2c1.9-2,4.1-3.5,6.7-4.5c2.5-1,5.3-1.6,8.2-1.6
				c2.5,0,4.9,0.4,7.1,1.1c2.2,0.7,4.1,1.8,5.8,3.1c1.7,1.3,3.1,2.9,4.2,4.8c1.1,1.8,1.8,3.9,2.1,6.1H949z"/>
		</g>
	</g>
</g>
</svg>
